<svg width="20" height="20" viewBox="0 0 20 20" fill="none" xmlns="http://www.w3.org/2000/svg">
<path fill-rule="evenodd" clip-rule="evenodd" d="M19.0667 9.9872C19.0667 10.6004 19.0042 11.2127 18.8816 11.8095C18.7621 12.3922 18.585 12.9643 18.353 13.5111C18.1263 14.0483 17.8452 14.566 17.5167 15.0487C17.1931 15.5284 16.8203 15.9785 16.4107 16.3887C16.0003 16.7972 15.5487 17.169 15.0693 17.494C14.5849 17.8202 14.0665 18.1009 13.529 18.3286C12.9814 18.5594 12.408 18.7362 11.8258 18.8556C11.2282 18.9785 10.6136 19.0413 9.99958 19.0413C9.38507 19.0413 8.77056 18.9785 8.17376 18.8556C7.5907 18.7362 7.01736 18.5594 6.47013 18.3286C5.93267 18.1009 5.41377 17.8202 4.92943 17.494C4.44995 17.169 3.99837 16.7972 3.58884 16.3887C3.17888 15.9785 2.80608 15.5284 2.48201 15.0487C2.15527 14.566 1.87368 14.0483 1.64613 13.5111C1.41411 12.9643 1.2366 12.3922 1.11661 11.8095C0.995316 11.2127 0.933319 10.6004 0.933319 9.9872C0.933319 9.37358 0.995281 8.75996 1.11665 8.16441C1.23663 7.58173 1.41414 7.00879 1.64616 6.46282C1.87371 5.92524 2.15531 5.40712 2.48204 4.92433C2.80612 4.44424 3.17892 3.99504 3.58888 3.58433C3.9984 3.17582 4.44999 2.80494 4.92946 2.48045C5.4138 2.15283 5.93271 1.87214 6.47017 1.644C7.01739 1.41274 7.5907 1.23549 8.1738 1.11702C8.7706 0.995013 9.38511 0.933105 9.99961 0.933105C10.6137 0.933105 11.2282 0.995013 11.8259 1.11702C12.408 1.23552 12.9814 1.41278 13.5291 1.644C14.0665 1.87211 14.585 2.15283 15.0693 2.48045C15.5488 2.80494 16.0004 3.17582 16.4108 3.58433C16.8203 3.99504 17.1931 4.44424 17.5167 4.92433C17.8452 5.40712 18.1263 5.92528 18.353 6.46282C18.585 7.00879 18.7621 7.58173 18.8816 8.16441C19.0042 8.75996 19.0667 9.37358 19.0667 9.9872ZM6.69588 2.9937C4.53666 4.01186 2.92512 5.99862 2.42261 8.393C2.62673 8.39477 5.85336 8.43545 9.57096 7.44911C8.23083 5.07152 6.79904 3.13123 6.69588 2.9937ZM10.2125 8.63972C6.2257 9.83156 2.40004 9.7458 2.2628 9.74052C2.26057 9.82362 2.25659 9.90406 2.25659 9.98719C2.25659 11.9735 3.00702 13.7843 4.24047 15.1535C4.23781 15.1495 6.35675 11.3957 10.5352 10.0464C10.6362 10.0128 10.7389 9.98276 10.8407 9.9536C10.6464 9.51418 10.4343 9.07385 10.2125 8.63972ZM15.1131 4.18427C13.7499 2.98396 11.96 2.25588 9.99955 2.25588C9.37042 2.25588 8.75989 2.33193 8.17505 2.4725C8.29102 2.62814 9.74542 4.55476 11.0696 6.9827C13.9912 5.88898 15.094 4.21255 15.1131 4.18427ZM11.3685 11.2348C11.3513 11.2405 11.334 11.2454 11.3172 11.2516C6.74869 12.8419 5.2568 16.0469 5.24065 16.0819C6.55515 17.1027 8.20388 17.7185 9.9996 17.7185C11.0719 17.7185 12.0932 17.5005 13.0225 17.1058C12.9079 16.4303 12.4581 14.0624 11.3685 11.2348ZM14.3264 16.3993C16.065 15.2278 17.2997 13.3675 17.6442 11.2126C17.4848 11.1614 15.3185 10.4765 12.8193 10.8767C13.8349 13.6636 14.2475 15.9334 14.3264 16.3993ZM11.6656 8.13481C11.8453 8.50353 12.0193 8.87881 12.18 9.25596C12.2372 9.39126 12.293 9.52389 12.3474 9.6565C15.0073 9.32226 17.6278 9.8846 17.7399 9.90757C17.7222 8.07468 17.0656 6.3925 15.9791 5.07553C15.9645 5.09626 14.7227 6.88808 11.6656 8.13481Z" fill="#333333"/>
</svg>
