<svg width="71" height="68" viewBox="0 0 71 68" fill="none" xmlns="http://www.w3.org/2000/svg">
<path d="M49.5349 20.7267C49.5349 19.1435 49.2399 17.6246 48.7017 16.2152L52.4679 14.1552L49.9912 10.0913L46.2177 12.1553C44.1484 9.83661 41.2589 8.19812 37.9768 7.64189V3.51965H33.0233V7.64175C29.7414 8.19799 26.8517 9.83661 24.7825 12.155L21.0089 10.0911L18.5323 14.155L22.2984 16.2149C21.7601 17.6243 21.4653 19.1432 21.4653 20.7264C21.4653 22.3096 21.7603 23.8285 22.2984 25.2379L18.5323 27.2978L21.0089 31.3617L24.7825 29.2977C26.8517 31.6163 29.7412 33.2548 33.0233 33.8109V37.9332H37.9768V33.8111C41.2588 33.2548 44.1484 31.6162 46.2177 29.2979L49.9912 31.3619L52.4679 27.298L48.7017 25.238C49.24 23.8287 49.5349 22.3099 49.5349 20.7267ZM35.5 29.3299C30.4926 29.3299 26.4187 25.4704 26.4187 20.7265C26.4187 15.9826 30.4926 12.123 35.5 12.123C40.5075 12.123 44.5814 15.9825 44.5814 20.7264C44.5814 25.4703 40.5075 29.3299 35.5 29.3299Z" fill="white"/>
<path d="M31.3722 55.9222V50.8268C31.3722 47.6931 30.0843 44.7471 27.7457 42.5317L21.1407 36.274C19.71 34.9184 17.8028 34.1865 15.7845 34.2129C15.4726 34.217 15.1646 34.241 14.8608 34.2804V25.419C14.8608 21.9777 12.0951 18.3827 7.22342 18.3827C3.23882 18.3828 0 21.6865 0 25.5168V43.4311C0 46.5648 1.28812 49.5111 3.6271 51.7268L9.907 57.6762V63.7436H14.8605V60.615H28.0698V63.7436H33.0233V55.9222H31.3722ZM26.4187 55.9222H15.0607L7.12968 48.4086C5.72632 47.0791 4.9535 45.3113 4.9535 43.4311V25.5168C4.9535 24.2041 6.03209 23.0738 7.3589 23.0738C8.88873 23.0738 9.907 24.1937 9.907 25.4192V37.0786C7.78241 39.8306 8.06682 43.7985 10.7053 46.298L16.8364 52.1064L20.339 48.7881L14.2079 42.9796C13.2281 42.0513 13.1471 40.5296 14.0855 39.6407C15.3072 38.4833 16.8751 38.8697 17.6378 39.5923L24.2432 45.85C25.646 47.1793 26.4188 48.9468 26.4188 50.8269V55.9222H26.4187Z" fill="white"/>
<path d="M63.7769 18.3828C58.9053 18.3828 56.1395 21.9778 56.1395 25.4192V34.2807C55.8357 34.2413 55.5277 34.217 55.2158 34.2132C53.1974 34.1869 51.2903 34.9188 49.8596 36.2743L43.2545 42.532C40.9158 44.7475 39.628 47.6933 39.628 50.8269V55.9224H37.9767V63.7437H42.9302V60.6152H56.1395V63.7437H61.093V57.6763L67.3729 51.727C69.7119 49.5109 71 46.5649 71 43.4313V25.5168C71 21.6865 67.7612 18.3828 63.7769 18.3828ZM66.0465 43.4313C66.0465 45.3115 65.2736 47.0792 63.8703 48.4087L55.9393 55.9224H44.5814V50.8269C44.5814 48.9467 45.3542 47.1792 46.757 45.8501L53.3623 39.5924C54.125 38.8698 55.693 38.4835 56.9147 39.6409C57.8531 40.5299 57.772 42.0516 56.7922 42.9797L50.6611 48.7883L54.1637 52.1065L60.2948 46.2981C62.9333 43.7986 63.2177 39.8307 61.0931 37.0787V25.4192C61.0931 24.1939 62.1114 23.0738 63.6412 23.0738C64.9681 23.0738 66.0466 24.2041 66.0466 25.5168V43.4313H66.0465Z" fill="white"/>
</svg>
