<svg width="181" height="181" viewBox="0 0 181 181" fill="none" xmlns="http://www.w3.org/2000/svg">
<path fill-rule="evenodd" clip-rule="evenodd" d="M83.2962 0.0907785C70.1639 1.4227 59.8905 4.34038 49.2252 9.76705C26.5719 21.2938 9.52524 42.2755 2.96205 66.7091C0.572553 75.6044 0 80.2079 0 90.5219C0 99.1225 0.212944 101.663 1.46984 108.059C5.88497 130.527 18.8772 150.737 37.5133 164.126C49.7887 172.946 63.2265 178.257 78.9276 180.495C83.6513 181.168 97.3148 181.168 102.038 180.495C123.912 177.377 142.56 167.755 156.992 152.142C169.982 138.088 177.703 121.638 180.495 102.072C181.168 97.3507 181.168 83.6931 180.495 78.9715C177.703 59.4056 169.982 42.9555 156.992 28.9022C142.612 13.344 123.854 3.64648 102.195 0.572357C99.3921 0.174589 85.8683 -0.169966 83.2962 0.0907785ZM50.6452 29.5277C53.5575 30.5611 55.3638 31.7387 57.8851 34.2491C61.5775 37.9253 63.185 41.8559 63.1951 47.2339C63.2012 50.5083 62.6217 52.9702 61.0856 56.1995C55.922 67.0528 45.4976 71.0292 36.4097 65.6121C31.801 62.8652 27.7053 56.6973 26.5778 50.8058C24.7752 41.3895 30.2154 32.2818 39.3765 29.3787C41.3968 28.7383 41.7793 28.6995 45.3656 28.77C48.1652 28.8248 49.0024 28.945 50.6452 29.5277ZM141.946 29.5799C154.091 34.0572 158.165 47.7809 150.72 59.1328C147.169 64.5449 142.243 67.6701 136.798 67.9643C129.79 68.343 123.391 64.033 119.725 56.4655C117.95 52.7994 117.412 50.2843 117.566 46.3755C117.667 43.8413 117.838 42.7499 118.377 41.2107C120.456 35.27 125.547 30.5832 131.585 29.0501C132.613 28.7894 134.141 28.7016 136.532 28.7663C139.491 28.8461 140.275 28.9639 141.946 29.5799ZM96.5618 47.7945C100.701 48.8781 105.411 51.803 108.202 55.0229C110.215 57.3457 112.074 60.6188 113.014 63.496C113.73 65.6906 113.864 66.5454 113.976 69.6597C114.169 75.0396 113.363 78.5314 110.774 83.5321C107.342 90.1595 101.42 95.2033 95.2035 96.7925C92.4994 97.4838 88.4667 97.4838 85.7626 96.7925C79.5462 95.2033 73.6237 90.1595 70.1924 83.5321C67.6033 78.5314 66.7973 75.0396 66.9903 69.6597C67.1021 66.5454 67.2357 65.6906 67.9525 63.496C68.8735 60.6768 70.7027 57.4263 72.6516 55.1458C75.9054 51.3387 81.0494 48.3636 85.9963 47.4276C88.8197 46.893 93.7765 47.0654 96.5618 47.7945ZM37.5878 71.0736C39.9722 72.0751 42.0548 72.3749 45.6874 72.2392C48.4556 72.136 49.2662 72.0003 50.9553 71.3583C53.3517 70.4475 55.8296 70.3595 59.0073 71.072C60.9693 71.5118 61.0702 71.5703 61.0702 72.2677C61.0702 75.3046 62.8951 81.8184 64.8164 85.6399C66.5521 89.0921 69.4719 93.1629 71.407 94.8284L72.0828 95.4103L71.4344 95.6695C70.6617 95.9784 65.4611 97.5726 65.2263 97.5726C65.1363 97.5726 65.0629 96.3674 65.0629 94.8944C65.0629 93.4215 64.9388 91.9847 64.7874 91.7016C64.4155 91.0075 63.0484 91.0075 62.6766 91.7016C62.5251 91.9847 62.4011 93.7152 62.4011 95.5471V98.878L61.2698 99.3784C56.7272 101.387 50.4831 106.436 47.8937 110.194L46.8743 111.674L42.7261 111.67C38.4965 111.665 34.7311 111.373 31.99 110.839L30.4595 110.541V101.378C30.4595 95.5716 30.3586 92.0278 30.184 91.7016C29.8718 91.1184 28.6231 91.0006 28.1171 91.5064C27.8818 91.7416 27.7977 94.1162 27.7977 100.537C27.7977 106.212 27.7024 109.307 27.5243 109.417C27.1027 109.677 21.4775 106.851 19.626 105.449C16.1278 102.8 13.6023 99.4548 12.3473 95.8084C11.6044 93.6503 11.6044 88.1917 12.3473 86.0337C13.2571 83.3903 14.5648 81.2695 16.6043 79.1295C20.5871 74.9502 26.3159 72.0266 32.8343 70.8469C35.634 70.34 35.8683 70.3512 37.5878 71.0736ZM129.745 71.3785C131.408 71.9939 132.287 72.1376 135.013 72.2392C138.679 72.3762 140.731 72.0748 143.187 71.0398C144.72 70.3935 144.868 70.3792 146.884 70.6857C155.309 71.9665 163.376 76.6647 166.705 82.2292C168.517 85.2586 168.957 86.755 169.086 90.3202C169.192 93.2693 169.138 93.7863 168.514 95.7871C168.135 97.0025 167.328 98.7694 166.721 99.7137C165.19 102.097 161.681 105.435 159.139 106.926C156.774 108.313 153.755 109.611 153.401 109.392C153.273 109.313 153.168 105.328 153.168 100.537C153.168 94.1162 153.084 91.7416 152.849 91.5064C152.343 91.0006 151.094 91.1184 150.782 91.7016C150.607 92.0278 150.507 95.574 150.507 101.386V110.555L148.843 110.844C145.884 111.359 142.196 111.665 138.906 111.67L135.691 111.674L134.793 110.424C133.342 108.405 130.568 105.602 128.281 103.844C125.477 101.69 124.488 101.071 121.266 99.4545L118.565 98.1V95.1581C118.565 91.8035 118.358 91.1871 117.234 91.1871C116.14 91.1871 115.903 91.8054 115.903 94.6595C115.903 96.8612 115.857 97.0889 115.437 96.9655C115.181 96.8899 113.774 96.5041 112.31 96.108C110.846 95.7115 109.603 95.3457 109.549 95.2943C109.494 95.2432 110.223 94.2681 111.168 93.1278C116.187 87.07 119.014 80.5543 119.77 73.3024C119.981 71.2817 119.838 71.3931 122.94 70.8131C125.475 70.339 127.359 70.4957 129.745 71.3785ZM108.442 99.6179C119.284 101.772 129.231 109.015 132.72 117.294C134.03 120.403 134.336 122.294 134.201 126.441C134.091 129.8 133.997 130.388 133.238 132.427C131.685 136.604 128.964 140.334 125.161 143.501C121.957 146.17 116.285 149.457 115.608 149.038C115.476 148.957 115.371 144.249 115.371 138.386V127.88L114.717 127.227C113.743 126.253 112.196 126.373 111.574 127.47C111.342 127.878 111.213 131.238 111.115 139.478L110.979 150.919L108.184 151.562C105.428 152.196 105.196 152.205 91.5478 152.227C77.0492 152.25 77.6013 152.285 72.1832 150.992L69.8541 150.436L69.8405 140.7C69.8251 129.75 69.6739 127.489 68.9209 126.939C68.1426 126.37 66.9804 126.495 66.2487 127.227L65.5952 127.88V138.136C65.5952 147.725 65.5649 148.391 65.1294 148.391C64.5694 148.391 60.7566 146.155 58.6932 144.617C56.4059 142.912 53.2237 139.574 51.7837 137.369C41.9537 122.318 52.7616 104.169 74.306 99.5506L76.495 99.0812L78.9641 100.305C83.1045 102.357 86.3759 103.163 90.5384 103.155C94.7007 103.148 98.2744 102.243 102.195 100.203C104.806 98.8442 104.632 98.8607 108.442 99.6179Z" fill="#384D33"/>
</svg>
