<svg width="70" height="71" viewBox="0 0 70 71" fill="none" xmlns="http://www.w3.org/2000/svg">
<path d="M55.9708 34.6783C55.9708 31.9888 51.6544 30.1776 50.6882 27.8384C49.6838 25.4146 51.4136 21.0932 49.5875 19.2654C47.7613 17.4375 43.4449 19.1707 41.0144 18.1647C38.6769 17.1952 36.864 12.8821 34.1763 12.8821C31.4885 12.8821 29.6756 17.1985 27.3364 18.1647C24.9126 19.1707 20.5912 17.4392 18.7634 19.2654C16.9355 21.0916 18.6671 25.408 17.6627 27.8384C16.6932 30.1776 12.3801 31.9888 12.3801 34.6783C12.3801 37.3677 16.6965 39.1789 17.6627 41.5164C18.6588 43.9403 16.9372 48.2633 18.7634 50.0895C20.5895 51.9157 24.9059 50.1858 27.3364 51.1918C29.6756 52.1614 31.4868 56.4728 34.1763 56.4728C36.8657 56.4728 38.6769 52.1564 41.0144 51.1918C43.4383 50.1858 47.7613 51.9173 49.5875 50.0895C51.4136 48.2617 49.6838 43.9469 50.6882 41.5164C51.6577 39.1789 55.9708 37.3677 55.9708 34.6783ZM34.1763 46.814C31.7756 46.8143 29.4287 46.1027 27.4324 44.7692C25.4362 43.4356 23.8803 41.54 22.9614 39.3222C22.0426 37.1043 21.8021 34.6637 22.2703 32.3091C22.7386 29.9545 23.8946 27.7917 25.5922 26.0942C27.2897 24.3966 29.4525 23.2406 31.8071 22.7723C34.1617 22.3041 36.6022 22.5446 38.8201 23.4634C41.038 24.3823 42.9336 25.9382 44.2672 27.9345C45.6007 29.9307 46.3123 32.2776 46.312 34.6783C46.312 37.8969 45.0334 40.9836 42.7575 43.2595C40.4816 45.5354 37.3948 46.814 34.1763 46.814Z" fill="#384D33"/>
<path d="M38.6189 33.4529H36.3411C36.2175 33.453 36.0958 33.423 35.9863 33.3656C35.8769 33.3081 35.7831 33.2249 35.713 33.1231C35.6429 33.0213 35.5986 32.904 35.584 32.7813C35.5693 32.6585 35.5848 32.5341 35.6289 32.4187L37.5447 27.3751C37.5885 27.2595 37.6036 27.135 37.5887 27.0123C37.5738 26.8897 37.5293 26.7724 37.4591 26.6707C37.3889 26.569 37.2951 26.4858 37.1856 26.4284C37.0762 26.3709 36.9545 26.3409 36.8309 26.3408H31.877C31.702 26.3405 31.5322 26.4003 31.3962 26.5104C31.2601 26.6204 31.1661 26.7739 31.1299 26.9451L28.985 37.0289C28.9612 37.1401 28.9626 37.2553 28.9891 37.3659C29.0156 37.4766 29.0666 37.5798 29.1382 37.6682C29.2099 37.7566 29.3004 37.8278 29.4031 37.8766C29.5059 37.9254 29.6183 37.9506 29.732 37.9503H32.966C33.0786 37.9502 33.1898 37.975 33.2916 38.023C33.3935 38.0709 33.4835 38.1407 33.5552 38.2275C33.6269 38.3143 33.6786 38.4158 33.7064 38.5249C33.7343 38.634 33.7377 38.7479 33.7164 38.8584L33.0789 42.1787C33.0456 42.3698 33.0802 42.5666 33.1769 42.7348C33.2735 42.903 33.4261 43.0321 33.608 43.0996C33.7899 43.1671 33.9897 43.1687 34.1726 43.1042C34.3556 43.0397 34.5102 42.9131 34.6096 42.7465L39.2813 34.6034C39.3496 34.4871 39.3859 34.3548 39.3865 34.2199C39.3871 34.0851 39.3519 33.9524 39.2846 33.8355C39.2173 33.7187 39.1203 33.6217 39.0033 33.5545C38.8864 33.4873 38.7537 33.4522 38.6189 33.4529Z" fill="#384D33"/>
<path d="M59.0952 60.1002C63.7993 55.294 67.019 49.2342 68.3689 42.6459C69.7189 36.0576 69.1419 29.2198 66.707 22.9509C59.7178 4.98801 39.4157 -3.94031 21.4512 3.0506L22.5353 5.83635C38.9708 -0.556915 57.5297 7.60607 63.9229 24.035C66.1498 29.7699 66.6764 36.0251 65.4398 42.0516C64.2031 48.0782 61.2557 53.6205 56.9503 58.015L54.8253 55.9448C54.6016 55.7266 54.3182 55.5797 54.011 55.5227C53.7038 55.4656 53.3866 55.501 53.0995 55.6244C52.8124 55.7478 52.5683 55.9535 52.3983 56.2157C52.2282 56.4778 52.1398 56.7845 52.1441 57.097L52.2238 62.7232C52.23 63.1411 52.4015 63.5395 52.7009 63.8311C53.0002 64.1227 53.403 64.2837 53.8209 64.2788L59.4472 64.2124C59.7595 64.2086 60.0636 64.1122 60.3211 63.9354C60.5786 63.7587 60.7779 63.5095 60.8938 63.2195C61.0097 62.9294 61.0369 62.6115 60.9721 62.306C60.9073 62.0005 60.7533 61.721 60.5296 61.503L59.0952 60.1002Z" fill="#384D33"/>
<path d="M22.1899 64.5526C17.4542 62.4738 13.294 59.2764 10.0666 55.235C6.83929 51.1937 4.64134 46.4292 3.66162 41.3509C2.68189 36.2727 2.94968 31.0325 4.44199 26.0806C5.93429 21.1287 8.60648 16.6131 12.229 12.9218L14.1116 14.748C14.3353 14.9662 14.6187 15.1131 14.9259 15.1701C15.2331 15.2272 15.5504 15.1918 15.8374 15.0684C16.1245 14.945 16.3686 14.7392 16.5386 14.4771C16.7087 14.215 16.7971 13.9082 16.7928 13.5958L16.7131 7.96953C16.7105 7.76249 16.6671 7.55799 16.5854 7.36773C16.5037 7.17747 16.3853 7.00517 16.237 6.8607C16.0887 6.71623 15.9133 6.60241 15.721 6.52576C15.5286 6.4491 15.323 6.41112 15.116 6.41397L9.48973 6.48037C9.1749 6.48123 8.86752 6.5762 8.60706 6.75307C8.34661 6.92994 8.14498 7.18065 8.02809 7.47298C7.91119 7.7653 7.88437 8.0859 7.95105 8.39359C8.01774 8.70128 8.1749 8.98201 8.40233 9.19971L10.0841 10.8383C4.48181 16.5445 1.00566 23.9992 0.235604 31.9587C-0.534451 39.9181 1.44816 47.901 5.85264 54.5753C10.2571 61.2496 16.8171 66.2118 24.4381 68.6339C32.0591 71.0559 40.2802 70.7915 47.7298 67.8846L46.6474 65.1005C42.7369 66.6307 38.5619 67.3701 34.3638 67.2761C30.1657 67.1821 26.0279 66.2564 22.1899 64.5526Z" fill="#384D33"/>
</svg>
