<svg width="76" height="76" viewBox="0 0 76 76" fill="none" xmlns="http://www.w3.org/2000/svg">
<path d="M29.7092 33.7702L29.7061 33.7656L29.7092 33.7841V33.7702Z" fill="#384D33"/>
<path d="M13.7737 37.5892C14.3318 39.8881 15.2228 42.0885 16.4208 44.1378L10.5212 50.0348L11.2315 50.7452C13.355 52.8699 16.1813 54.0387 19.1856 54.0387C21.1338 54.0387 23.0449 53.537 24.7294 52.5859C26.753 53.8236 28.9406 54.753 31.2293 55.3481V63.6401H32.2304C37.2621 63.6401 41.6859 60.2889 43.0555 55.4594C45.3659 54.9026 47.5727 54.0091 49.6246 52.8085L55.5228 58.7095L56.2332 57.9991C59.8185 54.4188 60.561 48.893 58.0739 44.5012C59.3116 42.4776 60.2397 40.2964 60.8361 38H69.1818V36.999C69.1818 31.9364 65.8012 27.5077 60.941 26.1547C60.3879 23.8532 59.4984 21.6529 58.2978 19.606L64.1948 13.7038L63.4882 12.996C61.3608 10.8712 58.5372 9.69995 55.5304 9.69995C53.5821 9.69995 51.6685 10.2043 49.9866 11.1566C47.9642 9.91884 45.7818 8.98818 43.4891 8.39168V0H42.4895C37.395 0 32.9585 3.40108 31.6273 8.29326C29.3348 8.85134 27.137 9.73838 25.0953 10.9378L19.1958 5.03564L18.4855 5.74347C14.9027 9.32753 14.1589 14.8483 16.6435 19.2426C15.4058 21.2675 14.4791 23.4513 13.8813 25.7426H5.53796V26.7449C5.53796 31.8073 8.91463 36.2374 13.7737 37.5892ZM29.1468 32.8198L40.8616 19.724C41.0049 19.5615 41.2162 19.4642 41.4389 19.4642L47.6136 19.4065C47.9361 19.4065 48.2306 19.6062 48.3459 19.9019C48.4675 20.2052 48.392 20.5446 48.1527 20.7635L38.3989 29.8504L44.1371 30.1704C44.4521 30.1858 44.7285 30.3918 44.8335 30.694C44.941 30.9909 44.8552 31.3276 44.6146 31.5388L30.6418 44.0343C30.4985 44.1649 30.3141 44.2353 30.1182 44.2353C29.9083 44.2353 29.7137 44.1534 29.5652 44.0049C29.2721 43.7118 29.2579 43.2369 29.5345 42.9284L37.8124 33.6777L29.7713 34.1232H29.7611C29.4142 34.1232 29.1493 33.9492 29.0238 33.6804C28.8869 33.3907 28.9356 33.054 29.1468 32.8198Z" fill="#384D33"/>
<path d="M58.4362 66.6329C57.0795 67.8706 55.7379 68.4698 54.335 68.4698H54.1917C52.3485 68.3623 51.0198 67.0631 50.6448 66.6548C50.5335 66.5435 47.8595 63.9425 44.383 63.9425L44.1718 63.9463C42.1839 64.0179 40.3931 64.9511 38.8494 66.7202C37.6526 68.0859 36.4072 68.7785 35.0861 68.7785C32.914 68.7503 31.2537 66.7406 31.2512 66.7406L31.0169 66.5295C29.2825 65.2328 26.3602 63.8491 23.3636 63.8491C20.8625 63.8491 18.7505 64.8143 17.0775 66.7151C15.8435 68.1143 14.4906 68.8386 13.0519 68.8758L13.0571 69.2202L13.0328 68.8797H12.9343C11.0706 68.8797 9.44752 67.7636 8.6411 67.0929L8.40552 66.8997L6.88608 68.3576L7.17535 68.6007C8.20711 69.4903 10.3229 70.9751 12.9341 70.9751H12.9379H13.062C15.1253 70.9316 17.0032 69.9625 18.648 68.0976C19.9114 66.6587 21.5114 65.9344 23.3981 65.9344C26.3831 65.9344 29.1698 67.7891 29.6433 68.1155C30.5765 69.1241 32.5157 70.824 35.0411 70.874C36.9714 70.874 38.8313 69.9126 40.4237 68.0976C41.582 66.7702 42.8275 66.0981 44.2304 66.038H44.3853C46.4884 66.038 48.3713 67.4589 48.8986 67.8966L49.1021 68.0694C49.4438 68.4535 51.2692 70.376 54.0212 70.559C56.0091 70.6704 58.0033 69.8627 59.8491 68.1846C61.1829 66.9647 62.6869 66.3465 64.3227 66.3465C66.3182 66.3465 68.0143 67.2822 68.8502 67.8428L69.1087 68.0117L70.4617 66.404L70.157 66.1888C69.1342 65.4643 67.0172 64.2471 64.3022 64.2471C62.1419 64.2469 60.1681 65.0508 58.4362 66.6329Z" fill="#384D33"/>
<path d="M64.3025 69.2734C62.1418 69.2734 60.1694 70.0773 58.4362 71.6555C57.0794 72.8971 55.7379 73.4987 54.335 73.4987H54.1917C52.3485 73.3874 51.0198 72.0855 50.6448 71.676C50.3606 71.3994 47.7673 68.9712 44.383 68.9712L44.1718 68.975C42.1839 69.0479 40.3931 69.9761 38.8494 71.7449C37.6551 73.1107 36.4097 73.8032 35.0899 73.8032H35.0861C32.914 73.7776 31.2537 71.7693 31.2512 71.7654L31.0169 71.5542C29.2825 70.2627 26.3602 68.8777 23.3636 68.8777C20.8625 68.8777 18.7505 69.839 17.0775 71.7399C15.8448 73.139 14.4906 73.8634 13.0519 73.9006L13.0571 74.2155L13.0404 73.9045H12.9341C11 73.9045 9.28863 72.6591 8.64095 72.1202L8.40537 71.923L6.88593 73.3809L7.1752 73.628C8.20696 74.5138 10.3227 75.9998 12.9339 75.9998H13.062C15.1228 75.9576 17.0019 74.9885 18.648 73.1223C19.9126 71.6875 21.5114 70.9591 23.3981 70.9591C26.3831 70.9591 29.1698 72.8178 29.6433 73.1403C30.7824 74.3755 32.645 75.8526 35.0411 75.9C36.9714 75.9 38.8313 74.9374 40.4237 73.1223C41.582 71.795 42.8275 71.1204 44.2241 71.064L44.3853 71.0602C46.4846 71.0602 48.3713 72.4836 48.8986 72.9176L49.1021 73.0981C49.4438 73.4822 51.2768 75.4021 54.0212 75.5877C56.0411 75.6953 58.0071 74.8876 59.8491 73.2056C61.1828 71.9896 62.6906 71.3714 64.3227 71.3714C66.3208 71.3714 68.0143 72.3084 68.8502 72.8677L69.1087 73.0405L70.4617 71.4328L70.157 71.2139C69.1345 70.4896 67.0136 69.2734 64.3025 69.2734Z" fill="#384D33"/>
</svg>
