<svg width="67" height="67" viewBox="0 0 67 67" fill="none" xmlns="http://www.w3.org/2000/svg">
<path d="M61.4169 35.7334H59.1835V33.5H61.4169C61.9708 33.5 62.4408 33.0936 62.5213 32.5452C62.6028 31.9969 62.2689 31.4733 61.7375 31.3136L40.2004 24.8526V13.7842L53.8092 17.8668H42.4338C41.8162 17.8668 41.3171 18.367 41.3171 18.9834C41.3171 19.5997 41.8162 20.1 42.4338 20.1H56.9504V22.3334H54.717C54.0995 22.3334 53.6004 22.8337 53.6004 23.45C53.6004 24.0663 54.0995 24.5666 54.717 24.5666H61.417C62.0345 24.5666 62.5336 24.0663 62.5336 23.45C62.5336 22.8337 62.0345 22.3334 61.417 22.3334H59.1836V20.1H61.417C61.9709 20.1 62.441 19.6936 62.5215 19.1453C62.603 18.5969 62.269 18.0732 61.7376 17.9136L39.871 11.3532L34.5957 0.624199C34.4092 0.244576 34.024 0.00222461 33.6008 0H33.5929C33.173 0 32.7877 0.235678 32.5968 0.610852L26.9208 11.7775C26.9152 11.7898 26.9174 11.8021 26.9119 11.8144C26.8796 11.8814 26.8705 11.9551 26.8516 12.0277C26.8336 12.1003 26.8102 12.1718 26.808 12.2454C26.808 12.2588 26.8001 12.27 26.8001 12.2834V17.8668H13.3376L24.8817 14.471C25.4736 14.2978 25.8119 13.677 25.6377 13.0852C25.4646 12.4945 24.8471 12.1538 24.2519 12.328L5.26866 17.9114C4.73606 18.0688 4.39884 18.5925 4.47801 19.143C4.55731 19.6924 5.02853 20.1 5.58351 20.1H7.81689V22.3334H5.58351C4.96598 22.3334 4.46689 22.8337 4.46689 23.45C4.46689 24.0663 4.96598 24.5666 5.58351 24.5666H12.2835C12.901 24.5666 13.4001 24.0663 13.4001 23.45C13.4001 22.8337 12.901 22.3334 12.2835 22.3334H10.0501V20.1H26.8001V31.2666H13.3376L24.8817 27.8708C25.4736 27.6977 25.8119 27.0769 25.6377 26.485C25.4646 25.8943 24.8471 25.5549 24.2519 25.7279L5.26866 31.3114C4.73606 31.4688 4.39884 31.9925 4.47801 32.543C4.55731 33.0924 5.02853 33.5 5.58351 33.5H7.81689V35.7334H5.58351C4.96598 35.7334 4.46689 36.2337 4.46689 36.85C4.46689 37.4663 4.96598 37.9666 5.58351 37.9666H12.2835C12.901 37.9666 13.4001 37.4663 13.4001 36.85C13.4001 36.2337 12.901 35.7334 12.2835 35.7334H10.0501V33.5H26.4362L18.1405 62.5334H14.5169C13.8994 62.5334 13.4003 63.0337 13.4003 63.65V65.8834C13.4003 66.4997 13.8994 67 14.5169 67C15.1344 67 15.6335 66.4997 15.6335 65.8834V64.7668H18.9813H18.9847H48.0124H48.0158H51.367V65.8834C51.367 66.4997 51.8661 67 52.4836 67C53.1012 67 53.6003 66.4997 53.6003 65.8834V63.65C53.6003 63.0337 53.1012 62.5334 52.4836 62.5334H48.86L40.2003 32.227V27.1841L53.8091 31.2666H42.4336C41.8161 31.2666 41.317 31.7669 41.317 32.3832C41.317 32.9996 41.8161 33.4999 42.4336 33.4999H56.9502V35.7332H54.7169C54.0993 35.7332 53.6003 36.2335 53.6003 36.8499C53.6003 37.4662 54.0993 37.9665 54.7169 37.9665H61.4169C62.0344 37.9665 62.5335 37.4662 62.5335 36.8499C62.5335 36.2335 62.0344 35.7334 61.4169 35.7334ZM20.4642 62.5334L24.1135 49.7632L31.4209 54.4118L23.6322 59.3687C23.1117 59.6992 22.9588 60.3904 23.2893 60.9109C23.5026 61.2447 23.8633 61.4279 24.2329 61.4279C24.4384 61.4279 24.645 61.372 24.8315 61.2525L33.5001 55.7361L44.181 62.5332H20.4642V62.5334ZM46.1352 61.1286L24.7534 47.522L27.296 38.6211L31.4746 41.3804L27.3016 44.1352C26.7868 44.4747 26.6449 45.1681 26.9856 45.6829C27.1989 46.0078 27.5551 46.1832 27.9179 46.1832C28.129 46.1832 28.3434 46.124 28.5321 45.9989L33.5001 42.7181L41.4977 47.9988L36.2271 51.3533C35.7079 51.6849 35.5537 52.3738 35.8854 52.8953C36.0976 53.2293 36.4594 53.4123 36.8291 53.4123C37.0335 53.4123 37.2411 53.3554 37.4276 53.237L42.8869 49.7631L46.1352 61.1286ZM41.6474 45.4216L34.1211 40.4524C34.1199 40.4512 34.1188 40.4502 34.1166 40.449L27.9403 36.3699L28.7599 33.5H35.7335C36.351 33.5 36.8501 32.9997 36.8501 32.3834C36.8501 31.767 36.351 31.2668 35.7335 31.2668H29.0335V26.8H35.7335C36.351 26.8 36.8501 26.2997 36.8501 25.6834C36.8501 25.067 36.351 24.5668 35.7335 24.5668H29.0335V20.1H35.7335C36.351 20.1 36.8501 19.5997 36.8501 18.9834C36.8501 18.367 36.351 17.8668 35.7335 17.8668H29.0335V13.4H34.6169C35.2344 13.4 35.7335 12.8997 35.7335 12.2834C35.7335 11.667 35.2344 11.1668 34.6169 11.1668H29.737L33.5762 3.61368L37.9669 12.5437V32.3835C37.9669 32.4874 37.9814 32.5901 38.0093 32.6906L39.0611 36.37L36.274 38.2103C35.7591 38.5497 35.6185 39.2432 35.9579 39.7569C36.1723 40.083 36.5286 40.2582 36.8903 40.2582C37.1024 40.2582 37.3157 40.1991 37.5044 40.074L39.7043 38.6212L41.6474 45.4216Z" fill="#384D33"/>
</svg>
