<svg width="63" height="67" viewBox="0 0 63 67" fill="none" xmlns="http://www.w3.org/2000/svg">
<g clip-path="url(#clip0_215_46)">
<path d="M11.8125 34.7427C12.537 34.7427 13.1251 34.1201 13.1251 33.353V30.5736C13.1251 29.8065 12.537 29.1838 11.8125 29.1838C11.088 29.1838 10.5 29.8065 10.5 30.5736V33.353C10.5 34.1201 11.088 34.7427 11.8125 34.7427Z" fill="white"/>
<path d="M17.0625 34.7427C17.787 34.7427 18.3751 34.1201 18.3751 33.353V30.5736C18.3751 29.8065 17.787 29.1838 17.0625 29.1838C16.338 29.1838 15.75 29.8065 15.75 30.5736V33.353C15.75 34.1201 16.338 34.7427 17.0625 34.7427Z" fill="white"/>
<path d="M17.0625 43.081C17.787 43.081 18.3751 42.4583 18.3751 41.6912V38.9118C18.3751 38.1447 17.787 37.5221 17.0625 37.5221C16.338 37.5221 15.75 38.1447 15.75 38.9118V41.6912C15.75 42.4583 16.338 43.081 17.0625 43.081Z" fill="white"/>
<path d="M6.56245 34.7427C7.28695 34.7427 7.87499 34.1201 7.87499 33.353V30.5736C7.87499 29.8065 7.28695 29.1838 6.56245 29.1838C5.83795 29.1838 5.24991 29.8065 5.24991 30.5736V33.353C5.25003 34.1201 5.83795 34.7427 6.56245 34.7427Z" fill="white"/>
<path d="M51.1875 15.2867H56.4375C57.162 15.2867 57.7501 14.6641 57.7501 13.897V8.33824C57.7501 7.57112 57.162 6.94849 56.4375 6.94849H51.1875C50.463 6.94849 49.875 7.57112 49.875 8.33824V13.8971C49.875 14.6642 50.463 15.2867 51.1875 15.2867ZM52.5 9.72798H55.125V12.5074H52.5V9.72798Z" fill="white"/>
<path d="M11.8125 43.081C12.537 43.081 13.1251 42.4583 13.1251 41.6912V38.9118C13.1251 38.1447 12.537 37.5221 11.8125 37.5221C11.088 37.5221 10.5 38.1447 10.5 38.9118V41.6912C10.5 42.4583 11.088 43.081 11.8125 43.081Z" fill="white"/>
<path d="M6.56245 43.081C7.28695 43.081 7.87499 42.4583 7.87499 41.6912V38.9118C7.87499 38.1447 7.28695 37.5221 6.56245 37.5221C5.83795 37.5221 5.24991 38.1447 5.24991 38.9118V41.6912C5.25003 42.4583 5.83795 43.081 6.56245 43.081Z" fill="white"/>
<path d="M40.6875 37.5221H45.9376C46.6621 37.5221 47.2501 36.8995 47.2501 36.1323V30.5735C47.2501 29.8063 46.6621 29.1837 45.9376 29.1837H40.6875C39.963 29.1837 39.375 29.8063 39.375 30.5735V36.1323C39.375 36.8995 39.963 37.5221 40.6875 37.5221ZM42 31.9632H44.6249V34.7426H42V31.9632Z" fill="white"/>
<path d="M40.6875 48.6398H45.9376C46.6621 48.6398 47.2501 48.0171 47.2501 47.25V41.6913C47.2501 40.9241 46.6621 40.3015 45.9376 40.3015H40.6875C39.963 40.3015 39.375 40.9241 39.375 41.6913V47.2501C39.375 48.0172 39.963 48.6398 40.6875 48.6398ZM42 43.081H44.6249V45.8604H42V43.081Z" fill="white"/>
<path d="M61.6875 1.38977H35.4375C34.713 1.38977 34.125 2.0124 34.125 2.77952V30.5736H23.625V25.0147C23.625 24.2476 23.037 23.625 22.3125 23.625H1.31254C0.588041 23.625 0 24.2476 0 25.0147V63.9265C0 64.6937 0.588041 65.3163 1.31254 65.3163H22.3126C23.0371 65.3163 23.6251 64.6937 23.6251 63.9265V43.081H34.1251V63.9265C34.1251 64.6937 34.7131 65.3163 35.4376 65.3163H61.6876C62.4121 65.3163 63.0001 64.6937 63.0001 63.9265V2.77939C63 2.01227 62.412 1.38977 61.6875 1.38977ZM15.75 62.5368H7.875V48.6397H15.75V62.5368ZM21 62.5368H18.3751V47.2501C18.3751 46.483 17.787 45.8603 17.0625 45.8603H6.56246C5.83796 45.8603 5.24992 46.483 5.24992 47.2501V62.5368H2.62496V26.4045H20.9999V62.5368H21ZM34.125 40.3015H23.625V33.353H34.125V40.3015ZM60.375 62.5368H36.75V4.16914H60.375V62.5368Z" fill="white"/>
<path d="M51.1875 26.4045H56.4375C57.162 26.4045 57.7501 25.7819 57.7501 25.0148V19.4559C57.7501 18.6888 57.162 18.0662 56.4375 18.0662H51.1875C50.463 18.0662 49.875 18.6888 49.875 19.4559V25.0148C49.875 25.7819 50.463 26.4045 51.1875 26.4045ZM52.5 20.8457H55.125V23.625H52.5V20.8457Z" fill="white"/>
<path d="M40.6875 26.4045H45.9376C46.6621 26.4045 47.2501 25.7819 47.2501 25.0148V19.4559C47.2501 18.6888 46.6621 18.0662 45.9376 18.0662H40.6875C39.963 18.0662 39.375 18.6888 39.375 19.4559V25.0148C39.375 25.7819 39.963 26.4045 40.6875 26.4045ZM42 20.8457H44.6249V23.625H42V20.8457Z" fill="white"/>
<path d="M40.6875 59.7574H45.9376C46.6621 59.7574 47.2501 59.1348 47.2501 58.3677V52.8088C47.2501 52.0417 46.6621 51.4191 45.9376 51.4191H40.6875C39.963 51.4191 39.375 52.0417 39.375 52.8088V58.3677C39.375 59.1348 39.963 59.7574 40.6875 59.7574ZM42 54.1986H44.6249V56.9779H42V54.1986Z" fill="white"/>
<path d="M51.1875 48.6398H56.4375C57.162 48.6398 57.7501 48.0171 57.7501 47.25V41.6913C57.7501 40.9241 57.162 40.3015 56.4375 40.3015H51.1875C50.463 40.3015 49.875 40.9241 49.875 41.6913V47.2501C49.875 48.0172 50.463 48.6398 51.1875 48.6398ZM52.5 43.081H55.125V45.8604H52.5V43.081Z" fill="white"/>
<path d="M51.1875 37.5221H56.4375C57.162 37.5221 57.7501 36.8995 57.7501 36.1323V30.5735C57.7501 29.8063 57.162 29.1837 56.4375 29.1837H51.1875C50.463 29.1837 49.875 29.8063 49.875 30.5735V36.1323C49.875 36.8995 50.463 37.5221 51.1875 37.5221ZM52.5 31.9632H55.125V34.7426H52.5V31.9632Z" fill="white"/>
<path d="M40.6875 15.2867H45.9376C46.6621 15.2867 47.2501 14.6641 47.2501 13.897V8.33824C47.2501 7.57112 46.6621 6.94849 45.9376 6.94849H40.6875C39.963 6.94849 39.375 7.57112 39.375 8.33824V13.8971C39.375 14.6642 39.963 15.2867 40.6875 15.2867ZM42 9.72798H44.6249V12.5074H42V9.72798Z" fill="white"/>
<path d="M51.1875 59.7574H56.4375C57.162 59.7574 57.7501 59.1348 57.7501 58.3677V52.8088C57.7501 52.0417 57.162 51.4191 56.4375 51.4191H51.1875C50.463 51.4191 49.875 52.0417 49.875 52.8088V58.3677C49.875 59.1348 50.463 59.7574 51.1875 59.7574ZM52.5 54.1986H55.125V56.9779H52.5V54.1986Z" fill="white"/>
</g>
<defs>
<clipPath id="clip0_215_46">
<rect width="63" height="66.7059" fill="white"/>
</clipPath>
</defs>
</svg>
