<svg width="20" height="20" viewBox="0 0 20 20" fill="none" xmlns="http://www.w3.org/2000/svg">
<path fill-rule="evenodd" clip-rule="evenodd" d="M10.0008 0.933105C7.53845 0.933105 7.22943 0.943872 6.26231 0.987884C5.29708 1.03208 4.63822 1.1849 4.06173 1.40911C3.4654 1.64069 2.95955 1.95047 2.45559 2.45462C1.95125 2.95858 1.64147 3.46443 1.40914 4.06057C1.18436 4.63726 1.03135 5.2963 0.987909 6.26115C0.944653 7.22827 0.933319 7.53749 0.933319 9.99987C0.933319 12.4622 0.944275 12.7703 0.988097 13.7374C1.03249 14.7027 1.1853 15.3615 1.40932 15.938C1.64109 16.5344 1.95087 17.0402 2.45502 17.5442C2.9588 18.0485 3.46465 18.359 4.0606 18.5906C4.63747 18.8148 5.29651 18.9676 6.26155 19.0119C7.22867 19.0559 7.53751 19.0666 9.9997 19.0666C12.4623 19.0666 12.7704 19.0559 13.7375 19.0119C14.7027 18.9676 15.3623 18.8148 15.9392 18.5906C16.5353 18.359 17.0404 18.0485 17.5442 17.5442C18.0485 17.0402 18.3583 16.5344 18.5906 15.9382C18.8135 15.3615 18.9665 14.7025 19.0119 13.7376C19.0553 12.7705 19.0667 12.4622 19.0667 9.99987C19.0667 7.53749 19.0553 7.22846 19.0119 6.26134C18.9665 5.29611 18.8135 4.63726 18.5906 4.06076C18.3583 3.46443 18.0485 2.95858 17.5442 2.45462C17.0399 1.95028 16.5355 1.6405 15.9386 1.40911C15.3606 1.1849 14.7014 1.03208 13.7362 0.987884C12.769 0.943872 12.4611 0.933105 9.998 0.933105H10.0008ZM9.18743 2.56699C9.42883 2.56661 9.69819 2.56699 10.0008 2.56699C12.4216 2.56699 12.7085 2.57568 13.6645 2.61912C14.5485 2.65954 15.0283 2.80726 15.3479 2.93136C15.771 3.09569 16.0727 3.29214 16.3898 3.60947C16.7072 3.92681 16.9036 4.22904 17.0683 4.65215C17.1924 4.97138 17.3403 5.45116 17.3806 6.33517C17.424 7.29096 17.4335 7.57807 17.4335 9.99777C17.4335 12.4175 17.424 12.7046 17.3806 13.6604C17.3401 14.5444 17.1924 15.0242 17.0683 15.3434C16.904 15.7665 16.7072 16.0678 16.3898 16.3849C16.0725 16.7023 15.7712 16.8987 15.3479 17.063C15.0287 17.1877 14.5485 17.335 13.6645 17.3755C12.7087 17.4189 12.4216 17.4284 10.0008 17.4284C7.57978 17.4284 7.29286 17.4189 6.33707 17.3755C5.45306 17.3347 4.97328 17.187 4.65349 17.0628C4.23037 16.8985 3.92814 16.7021 3.61081 16.3847C3.29347 16.0674 3.09703 15.7659 2.93231 15.3426C2.80821 15.0234 2.66031 14.5436 2.62008 13.6596C2.57663 12.7038 2.56794 12.4167 2.56794 9.9955C2.56794 7.57429 2.57663 7.28869 2.62008 6.3329C2.6605 5.44889 2.80821 4.96911 2.93231 4.64951C3.09665 4.22639 3.29347 3.92417 3.61081 3.60683C3.92814 3.28949 4.23037 3.09305 4.65349 2.92833C4.97309 2.80367 5.45306 2.65633 6.33707 2.61572C7.17348 2.57794 7.49761 2.56661 9.18743 2.56472V2.56699ZM14.8406 4.07245C14.2399 4.07245 13.7526 4.55922 13.7526 5.16008C13.7526 5.76076 14.2399 6.2481 14.8406 6.2481C15.4412 6.2481 15.9286 5.76076 15.9286 5.16008C15.9286 4.55941 15.4412 4.07245 14.8406 4.07245ZM10.0009 5.34368C7.42948 5.34368 5.34469 7.42847 5.34469 9.99984C5.34469 12.5712 7.42948 14.6551 10.0009 14.6551C12.5722 14.6551 14.6563 12.5712 14.6563 9.99984C14.6563 7.42847 12.5722 5.34368 10.0009 5.34368ZM10.0008 6.97759C11.6699 6.97759 13.0231 8.33061 13.0231 9.99984C13.0231 11.6689 11.6699 13.0221 10.0008 13.0221C8.33159 13.0221 6.97856 11.6689 6.97856 9.99984C6.97856 8.33061 8.33159 6.97759 10.0008 6.97759Z" fill="#333333"/>
</svg>
