<svg width="13" height="19" viewBox="0 0 13 19" fill="none" xmlns="http://www.w3.org/2000/svg">
<path d="M6.49974 0C3.24684 0 0.600456 2.95815 0.600456 6.59385C0.600456 10.0935 5.95298 18.27 6.18088 18.6162L6.39358 18.9397C6.41846 18.9778 6.45807 19 6.49974 19C6.54205 19 6.58141 18.9778 6.60654 18.9397L6.81911 18.6162C7.04714 18.27 12.3995 10.0935 12.3995 6.59385C12.3995 2.95815 9.75272 0 6.49974 0ZM6.49974 4.23194C7.66526 4.23194 8.61302 5.29125 8.61302 6.59385C8.61302 7.89577 7.66522 8.95575 6.49974 8.95575C5.3349 8.95575 4.38646 7.89577 4.38646 6.59385C4.38646 5.29125 5.33486 4.23194 6.49974 4.23194Z" fill="black"/>
</svg>
