<svg width="17" height="14" viewBox="0 0 17 14" fill="none" xmlns="http://www.w3.org/2000/svg">
<path fill-rule="evenodd" clip-rule="evenodd" d="M8.49085 3.81801L8.52653 4.40625L7.93197 4.33422C5.76778 4.0581 3.87709 3.12173 2.27178 1.54909L1.48697 0.768773L1.28482 1.34501C0.856734 2.62953 1.13023 3.98608 2.02207 4.89845C2.49771 5.40265 2.39069 5.47468 1.5702 5.17456C1.28482 5.07852 1.0351 5.00649 1.01132 5.0425C0.928081 5.12654 1.21347 6.21898 1.4394 6.65116C1.74857 7.2514 2.3788 7.83964 3.06849 8.18778L3.65115 8.46389L2.96147 8.47589C2.29556 8.47589 2.27178 8.4879 2.34313 8.74C2.58095 9.52032 3.52035 10.3487 4.56677 10.7088L5.30402 10.9609L4.6619 11.3451C3.71061 11.8973 2.59284 12.2094 1.47507 12.2334C0.939972 12.2454 0.5 12.2934 0.5 12.3295C0.5 12.4495 1.95072 13.1218 2.79499 13.3859C5.32781 14.1662 8.33627 13.8301 10.5956 12.4975C12.2009 11.5491 13.8062 9.66438 14.5553 7.83964C14.9596 6.86724 15.3639 5.09052 15.3639 4.23818C15.3639 3.68595 15.3996 3.61393 16.0655 2.95366C16.4579 2.5695 16.8265 2.14933 16.8979 2.02928C17.0168 1.80119 17.0049 1.80119 16.3985 2.00527C15.3877 2.36542 15.245 2.3174 15.7445 1.77718C16.1131 1.39303 16.5531 0.696743 16.5531 0.492661C16.5531 0.456646 16.3747 0.516671 16.1725 0.624714C15.9585 0.744763 15.4828 0.924836 15.1261 1.03288L14.484 1.23696L13.9013 0.840802C13.5803 0.624714 13.1284 0.384617 12.8906 0.312588C12.2841 0.14452 11.3566 0.168529 10.8096 0.360607C9.32323 0.900826 8.38383 2.29339 8.49085 3.81801Z" fill="#333333"/>
</svg>
