<svg width="20" height="14" viewBox="0 0 20 14" fill="none" xmlns="http://www.w3.org/2000/svg">
<path fill-rule="evenodd" clip-rule="evenodd" d="M17.0845 1.15571C17.8647 1.36981 18.4792 2.00067 18.6877 2.8018C19.0667 4.25375 19.0667 7.28327 19.0667 7.28327C19.0667 7.28327 19.0667 10.3127 18.6877 11.7647C18.4792 12.5659 17.8647 13.1967 17.0845 13.4109C15.6705 13.7999 10 13.7999 10 13.7999C10 13.7999 4.32954 13.7999 2.91545 13.4109C2.1352 13.1967 1.52073 12.5659 1.31219 11.7647C0.93335 10.3127 0.93335 7.28327 0.93335 7.28327C0.93335 7.28327 0.93335 4.25375 1.31219 2.8018C1.52073 2.00067 2.1352 1.36981 2.91545 1.15571C4.32954 0.766602 10 0.766602 10 0.766602C10 0.766602 15.6705 0.766602 17.0845 1.15571ZM8.30003 4.73321V10.3999L12.8334 7.56665L8.30003 4.73321Z" fill="#333333"/>
</svg>
